<?xml version="1.0" encoding="UTF-8" standalone="no"?>
<svg
   xmlns:dc="http://purl.org/dc/elements/1.1/"
   xmlns:cc="http://creativecommons.org/ns#"
   xmlns:rdf="http://www.w3.org/1999/02/22-rdf-syntax-ns#"
   xmlns:svg="http://www.w3.org/2000/svg"
   xmlns="http://www.w3.org/2000/svg"
   xmlns:sodipodi="http://sodipodi.sourceforge.net/DTD/sodipodi-0.dtd"
   xmlns:inkscape="http://www.inkscape.org/namespaces/inkscape"
   inkscape:export-ydpi="12"
   inkscape:export-xdpi="12"
   id="svg8"
   version="1.1"
   viewBox="0 0 67.733331 67.733331"
   height="256"
   width="256"
   sodipodi:docname="flexemu-original-frequency.svg"
   inkscape:version="1.0.1 (3bc2e813f5, 2020-09-07)">
  <sodipodi:namedview
     inkscape:document-rotation="0"
     pagecolor="#ffffff"
     bordercolor="#666666"
     borderopacity="1"
     objecttolerance="10"
     gridtolerance="10"
     guidetolerance="10"
     inkscape:pageopacity="0"
     inkscape:pageshadow="2"
     inkscape:window-width="2114"
     inkscape:window-height="1340"
     id="namedview1034"
     showgrid="true"
     inkscape:zoom="2.844"
     inkscape:cx="61.54"
     inkscape:cy="128"
     inkscape:window-x="112"
     inkscape:window-y="0"
     inkscape:window-maximized="0"
     inkscape:current-layer="svg8">
    <inkscape:grid
       type="xygrid"
       id="grid1146" />
  </sodipodi:namedview>
  <defs
     id="defs2">
    <inkscape:path-effect
       only_selected="false"
       apply_with_weight="true"
       apply_no_weight="true"
       helper_size="0"
       steps="2"
       weight="33.33"
       lpeversion="1"
       is_visible="true"
       id="path-effect934"
       effect="bspline" />
  </defs>
  <metadata
     id="metadata5">
    <rdf:RDF>
      <cc:Work
         rdf:about="">
        <dc:format>image/svg+xml</dc:format>
        <dc:type
           rdf:resource="http://purl.org/dc/dcmitype/StillImage" />
        <dc:title />
      </cc:Work>
    </rdf:RDF>
  </metadata>
  <g
     style="display:none"
     id="layer1">
    <rect
       y="1.5894591e-08"
       x="0"
       height="67.73333"
       width="67.73333"
       id="rect990"
       style="fill:#070707;fill-opacity:1;stroke:none;stroke-width:0.7109;stroke-linecap:square;stroke-linejoin:round;stroke-miterlimit:4;stroke-dasharray:none;stroke-opacity:1" />
  </g>
  <g
     id="certificate"
     transform="matrix(1.035,0,0,1.009,0.0831,-5.627)">
    <path
       style="fill:#ff2806;fill-opacity:1;stroke:#ff2806;stroke-width:2;stroke-linecap:butt;stroke-linejoin:round;stroke-miterlimit:4;stroke-dasharray:none;stroke-opacity:1"
       d="m 39.68,46.31 v 17.2 l 7.94,-5.29 7.94,5.29 v -17.2 z"
       id="path928" />
    <path
       d="m 63.5,39.7 c -1.33,3.19 -3.72,0.69 -6.17,3.13 -2.45,2.44 0,4.84 -3.16,6.15 -3.2,1.32 -3.12,-2.13 -6.58,-2.14 -3.46,-0 -3.39,3.45 -6.59,2.12 -3.19,-1.33 -0.69,-3.72 -3.13,-6.17 -2.44,-2.45 -4.84,0 -6.15,-3.16 -1.32,-3.2 2.13,-3.12 2.14,-6.58 0,-3.46 -3.45,-3.39 -2.12,-6.59 1.33,-3.19 3.72,-0.69 6.17,-3.13 2.45,-2.44 -0,-4.84 3.16,-6.15 3.2,-1.32 3.12,2.13 6.58,2.14 3.46,0 3.39,-3.45 6.59,-2.12 3.19,1.33 0.69,3.72 3.13,6.17 2.44,2.45 4.84,-0 6.15,3.16 1.32,3.2 -2.13,3.12 -2.14,6.58 -0,3.46 3.45,3.39 2.12,6.59 z"
       sodipodi:type="star"
       style="fill:#ffa000;fill-opacity:1;stroke:#ffa000;stroke-width:2.0001;stroke-linecap:round;stroke-linejoin:round;stroke-miterlimit:4;stroke-dasharray:none;stroke-opacity:1"
       id="path930"
       sodipodi:sides="8"
       sodipodi:cx="47.62"
       sodipodi:cy="33.08"
       sodipodi:r1="17.2"
       sodipodi:r2="13.76"
       sodipodi:arg1="0.3948"
       sodipodi:arg2="0.7875"
       inkscape:flatsided="false"
       inkscape:rounded="0.5"
       inkscape:randomized="0"
       inkscape:transform-center-x="-0.002752"
       inkscape:transform-center-y="0.002168" />
    <ellipse
       style="fill:#ff8d3d;fill-opacity:1;stroke:none;stroke-width:1.5442;stroke-linecap:round;stroke-linejoin:round;stroke-miterlimit:4;stroke-dasharray:none;stroke-opacity:1"
       id="circle"
       cx="47.53"
       cy="33.21"
       rx="11.9"
       ry="11.73" />
    <path
       style="fill:none;stroke:#009200;stroke-width:3.9687;stroke-linecap:round;stroke-linejoin:round;stroke-miterlimit:4;stroke-dasharray:none;stroke-opacity:1"
       d="m 42.32,35.72 c 1.8,2.26 3.61,4.53 5.58,3.26 1.97,-1.28 4.17,-6.28 6.34,-11.2"
       id="check"
       inkscape:path-effect="#path-effect934"
       inkscape:original-d="m 42.32,35.72 c 1.8,2.26 3.62,4.53 5.42,6.8 1.99,-4.88 4.33,-9.82 6.5,-14.74" />
  </g>
  <text
     xml:space="preserve"
     style="font-style:italic;font-variant:normal;font-weight:bold;font-stretch:normal;font-size:50.8px;line-height:1.25;font-family:Kinnari;-inkscape-font-specification:'Kinnari Bold Italic';letter-spacing:0px;word-spacing:0px;stroke-width:0.2646"
     x="9.69"
     y="46.16"
     id="text2469"><tspan
       sodipodi:role="line"
       id="tspan2467"
       x="9.69"
       y="46.16"
       style="font-style:italic;font-variant:normal;font-weight:bold;font-stretch:normal;font-size:50.8px;font-family:Kinnari;-inkscape-font-specification:'Kinnari Bold Italic';stroke-width:0.2646">f</tspan></text>
</svg>
