<?xml version="1.0" encoding="UTF-8" standalone="no"?>
<svg
   xmlns:dc="http://purl.org/dc/elements/1.1/"
   xmlns:cc="http://creativecommons.org/ns#"
   xmlns:rdf="http://www.w3.org/1999/02/22-rdf-syntax-ns#"
   xmlns:svg="http://www.w3.org/2000/svg"
   xmlns="http://www.w3.org/2000/svg"
   xmlns:sodipodi="http://sodipodi.sourceforge.net/DTD/sodipodi-0.dtd"
   xmlns:inkscape="http://www.inkscape.org/namespaces/inkscape"
   inkscape:export-ydpi="48"
   inkscape:export-xdpi="48"
   id="svg8"
   version="1.1"
   viewBox="0 0 67.733331 67.733331"
   height="256"
   width="256"
   sodipodi:docname="flexemu-irqs.svg"
   inkscape:version="1.0.1 (3bc2e813f5, 2020-09-07)">
  <sodipodi:namedview
     inkscape:document-rotation="0"
     pagecolor="#ffffff"
     bordercolor="#666666"
     borderopacity="1"
     objecttolerance="10"
     gridtolerance="10"
     guidetolerance="10"
     inkscape:pageopacity="0"
     inkscape:pageshadow="2"
     inkscape:window-width="2393"
     inkscape:window-height="1236"
     id="namedview902"
     showgrid="false"
     inkscape:zoom="3.47"
     inkscape:cx="107.9"
     inkscape:cy="128"
     inkscape:window-x="17"
     inkscape:window-y="71"
     inkscape:window-maximized="0"
     inkscape:current-layer="svg8" />
  <defs
     id="defs2" />
  <metadata
     id="metadata5">
    <rdf:RDF>
      <cc:Work
         rdf:about="">
        <dc:format>image/svg+xml</dc:format>
        <dc:type
           rdf:resource="http://purl.org/dc/dcmitype/StillImage" />
        <dc:title />
      </cc:Work>
    </rdf:RDF>
  </metadata>
  <g
     style="display:none"
     id="layer1">
    <rect
       y="1.5894591e-08"
       x="0"
       height="67.73333"
       width="67.73333"
       id="rect990"
       style="fill:#070707;fill-opacity:1;stroke:none;stroke-width:0.7109;stroke-linecap:square;stroke-linejoin:round;stroke-miterlimit:4;stroke-dasharray:none;stroke-opacity:1" />
  </g>
  <g
     id="g938"
     transform="matrix(0.658,0,0,0.5996,-10.96,-1.741)">
    <path
       style="fill:#7f7f7f;fill-opacity:1;stroke:#7f7f7f;stroke-width:2.3179;stroke-linecap:round;stroke-linejoin:round;stroke-miterlimit:4;stroke-dasharray:none;stroke-opacity:1"
       d="m 26.16,8.286 c 20.8,0 20.29,0.133 20.29,0.133 L 35.74,30.65 47.39,30.55 37.44,44.9 48.73,45.01 33.9,58.86 20.81,45.4 l 8.85,-0.23 2.69,-8.08 -11.29,0.39 z"
       id="shadow" />
    <path
       id="flash"
       d="m 27.7,11.91 c 16.67,0 16.27,0.12 16.27,0.12 L 35.38,32.67 44.72,32.57 36.74,45.9 45.79,46 33.9,58.86 23.4,46.37 l 7.1,-0.22 2.16,-7.5 -9.06,0.36 z"
       style="fill:#ff0000;stroke:#000000;stroke-width:2;stroke-linecap:round;stroke-linejoin:round;stroke-miterlimit:4;stroke-dasharray:none;stroke-opacity:1" />
  </g>
  <g
     id="g1580"
     transform="matrix(0.6581,0,0,0.598,19.26,-3.664)">
    <path
       style="fill:#7f7f7f;fill-opacity:1;stroke:#7f7f7f;stroke-width:2.3179;stroke-linecap:round;stroke-linejoin:round;stroke-miterlimit:4;stroke-dasharray:none;stroke-opacity:1"
       d="m 26.16,8.286 c 20.8,0 20.29,0.133 20.29,0.133 L 35.74,30.65 47.39,30.55 37.44,44.9 48.73,45.01 33.9,58.86 20.81,45.4 l 8.85,-0.23 2.69,-8.08 -11.29,0.39 z"
       id="shadow-3" />
    <path
       id="flash-6"
       d="m 27.7,11.91 c 16.67,0 16.27,0.12 16.27,0.12 L 35.38,32.67 44.72,32.57 36.74,45.9 45.79,46 33.9,58.86 23.4,46.37 l 7.1,-0.22 2.16,-7.5 -9.06,0.36 z"
       style="fill:#00ffff;stroke:#000000;stroke-width:2;stroke-linecap:round;stroke-linejoin:round;stroke-miterlimit:4;stroke-dasharray:none;stroke-opacity:1" />
  </g>
  <g
     id="g3533"
     transform="matrix(0.6543,0,0,0.592,2.657,31.72)">
    <path
       id="shadow-5"
       d="m 26.16,8.286 c 20.8,0 20.29,0.133 20.29,0.133 L 35.74,30.65 47.39,30.55 37.44,44.9 48.73,45.01 33.9,58.86 20.81,45.4 l 8.85,-0.23 2.69,-8.08 -11.29,0.39 z"
       style="fill:#7f7f7f;fill-opacity:1;stroke:#7f7f7f;stroke-width:2.3179;stroke-linecap:round;stroke-linejoin:round;stroke-miterlimit:4;stroke-dasharray:none;stroke-opacity:1" />
    <path
       style="fill:#ff00ff;stroke:#000000;stroke-width:2;stroke-linecap:round;stroke-linejoin:round;stroke-miterlimit:4;stroke-dasharray:none;stroke-opacity:1"
       d="m 27.7,11.91 c 16.67,0 16.27,0.12 16.27,0.12 L 35.38,32.67 44.72,32.57 36.74,45.9 45.79,46 33.9,58.86 23.4,46.37 l 7.1,-0.22 2.16,-7.5 -9.06,0.36 z"
       id="flash-62" />
  </g>
  <g
     id="g4196"
     transform="matrix(0.6524,0,0,0.601,33.8,30.5)">
    <path
       id="shadow-9"
       d="m 26.16,8.286 c 20.8,0 20.29,0.133 20.29,0.133 L 35.74,30.65 47.39,30.55 37.44,44.9 48.73,45.01 33.9,58.86 20.81,45.4 l 8.85,-0.23 2.69,-8.08 -11.29,0.39 z"
       style="fill:#7f7f7f;fill-opacity:1;stroke:#7f7f7f;stroke-width:2.3179;stroke-linecap:round;stroke-linejoin:round;stroke-miterlimit:4;stroke-dasharray:none;stroke-opacity:1" />
    <path
       style="fill:#ffff00;stroke:#000000;stroke-width:2;stroke-linecap:round;stroke-linejoin:round;stroke-miterlimit:4;stroke-dasharray:none;stroke-opacity:1"
       d="m 27.7,11.91 c 16.67,0 16.27,0.12 16.27,0.12 L 35.38,32.67 44.72,32.57 36.74,45.9 45.79,46 33.9,58.86 23.4,46.37 l 7.1,-0.22 2.16,-7.5 -9.06,0.36 z"
       id="flash-1" />
  </g>
</svg>
