<?xml version="1.0" encoding="UTF-8" standalone="no"?>
<svg
   inkscape:version="1.4.2 (ebf0e940d0, 2025-05-08)"
   sodipodi:docname="flexemu-check-failed.svg"
   width="256"
   height="256"
   viewBox="0 0 67.733331 67.733331"
   version="1.1"
   id="svg8"
   inkscape:export-filename="../32x32/flexemu-check-failed.png"
   inkscape:export-xdpi="12"
   inkscape:export-ydpi="12"
   xmlns:inkscape="http://www.inkscape.org/namespaces/inkscape"
   xmlns:sodipodi="http://sodipodi.sourceforge.net/DTD/sodipodi-0.dtd"
   xmlns:xlink="http://www.w3.org/1999/xlink"
   xmlns="http://www.w3.org/2000/svg"
   xmlns:svg="http://www.w3.org/2000/svg"
   xmlns:rdf="http://www.w3.org/1999/02/22-rdf-syntax-ns#"
   xmlns:cc="http://creativecommons.org/ns#"
   xmlns:dc="http://purl.org/dc/elements/1.1/">
  <sodipodi:namedview
     inkscape:current-layer="svg8"
     inkscape:window-maximized="0"
     inkscape:window-y="153"
     inkscape:window-x="205"
     inkscape:cy="144.5"
     inkscape:cx="-31.333333"
     inkscape:zoom="3"
     showgrid="true"
     id="namedview902"
     inkscape:window-height="1712"
     inkscape:window-width="3121"
     inkscape:pageshadow="2"
     inkscape:pageopacity="0"
     guidetolerance="10"
     gridtolerance="10"
     objecttolerance="10"
     borderopacity="1"
     bordercolor="#666666"
     pagecolor="#ffffff"
     inkscape:document-rotation="0"
     inkscape:showpageshadow="2"
     inkscape:pagecheckerboard="0"
     inkscape:deskcolor="#d1d1d1">
    <inkscape:grid
       type="xygrid"
       id="grid7042"
       snapvisiblegridlinesonly="true"
       originx="0"
       originy="0"
       spacingy="1"
       spacingx="1"
       units="px" />
  </sodipodi:namedview>
  <defs
     id="defs2">
    <linearGradient
       id="linearGradient1"
       inkscape:collect="always">
      <stop
         style="stop-color:#fe0000;stop-opacity:1;"
         offset="0"
         id="stop1" />
      <stop
         style="stop-color:#ffcccc;stop-opacity:1;"
         offset="1"
         id="stop2" />
    </linearGradient>
    <rect
       id="rect898"
       height="4.5762773"
       width="13.354724"
       y="32.625656"
       x="23.025842" />
    <marker
       orient="auto"
       refY="0.0"
       refX="0.0"
       id="EmptyDiamondS"
       style="overflow:visible">
      <path
         id="path1045"
         d="M 0,-7.0710768 L -7.0710894,0 L 0,7.0710589 L 7.0710462,0 L 0,-7.0710768 z "
         style="fill-rule:evenodd;fill:#ffffff;stroke:#000000;stroke-width:1pt;stroke-opacity:1"
         transform="scale(0.2)" />
    </marker>
    <marker
       orient="auto"
       refY="0.0"
       refX="0.0"
       id="Arrow2Send"
       style="overflow:visible;">
      <path
         id="path966"
         style="fill-rule:evenodd;stroke-width:0.625;stroke-linejoin:round;stroke:#000000;stroke-opacity:1;fill:#000000;fill-opacity:1"
         d="M 8.7185878,4.0337352 L -2.2072895,0.016013256 L 8.7185884,-4.0017078 C 6.9730900,-1.6296469 6.9831476,1.6157441 8.7185878,4.0337352 z "
         transform="scale(0.3) rotate(180) translate(-2.3,0)" />
    </marker>
    <marker
       orient="auto"
       refY="0.0"
       refX="0.0"
       id="Arrow1Send"
       style="overflow:visible;">
      <path
         id="path948"
         d="M 0.0,0.0 L 5.0,-5.0 L -12.5,0.0 L 5.0,5.0 L 0.0,0.0 z "
         style="fill-rule:evenodd;stroke:#000000;stroke-width:1pt;stroke-opacity:1;fill:#000000;fill-opacity:1"
         transform="scale(0.2) rotate(180) translate(6,0)" />
    </marker>
    <marker
       orient="auto"
       refY="0.0"
       refX="0.0"
       id="Arrow1Mend"
       style="overflow:visible;">
      <path
         id="path942"
         d="M 0.0,0.0 L 5.0,-5.0 L -12.5,0.0 L 5.0,5.0 L 0.0,0.0 z "
         style="fill-rule:evenodd;stroke:#000000;stroke-width:1pt;stroke-opacity:1;fill:#000000;fill-opacity:1"
         transform="scale(0.4) rotate(180) translate(10,0)" />
    </marker>
    <marker
       orient="auto"
       refY="0.0"
       refX="0.0"
       id="Arrow1Lend"
       style="overflow:visible;">
      <path
         id="path936"
         d="M 0.0,0.0 L 5.0,-5.0 L -12.5,0.0 L 5.0,5.0 L 0.0,0.0 z "
         style="fill-rule:evenodd;stroke:#000000;stroke-width:1pt;stroke-opacity:1;fill:#000000;fill-opacity:1"
         transform="scale(0.8) rotate(180) translate(12.5,0)" />
    </marker>
    <marker
       inkscape:stockid="TriangleOutS"
       orient="auto"
       refY="0"
       refX="0"
       id="TriangleOutS"
       style="overflow:visible"
       inkscape:isstock="true">
      <path
         id="path3059"
         d="M 5.77,0 -2.88,5 V -5 Z"
         style="fill:#7fff00;fill-opacity:1;fill-rule:evenodd;stroke:#7fff00;stroke-width:1pt;stroke-opacity:1"
         transform="scale(0.2)" />
    </marker>
    <linearGradient
       inkscape:collect="always"
       xlink:href="#linearGradient1"
       id="linearGradient2"
       x1="53.978584"
       y1="53.558132"
       x2="13.675097"
       y2="13.254643"
       gradientUnits="userSpaceOnUse"
       gradientTransform="matrix(1.0026595,0,0,0.98418403,-0.05014077,0.92036302)" />
  </defs>
  <metadata
     id="metadata5">
    <rdf:RDF>
      <cc:Work
         rdf:about="">
        <dc:format>image/svg+xml</dc:format>
        <dc:type
           rdf:resource="http://purl.org/dc/dcmitype/StillImage" />
      </cc:Work>
    </rdf:RDF>
  </metadata>
  <g
     id="layer1"
     style="display:none">
    <rect
       style="fill:#070707;fill-opacity:1;stroke:none;stroke-width:0.71085942;stroke-linecap:square;stroke-linejoin:round;stroke-miterlimit:4;stroke-dasharray:none;stroke-opacity:1"
       id="rect990"
       width="67.73333"
       height="67.73333"
       x="0"
       y="1.5894591e-08" />
  </g>
  <path
     id="rect13661"
     style="fill:url(#linearGradient2);fill-opacity:1;fill-rule:evenodd;stroke:#c00000;stroke-width:0;stroke-linecap:round;stroke-linejoin:round;stroke-dasharray:none;stroke-dashoffset:4.68;stroke-opacity:1;paint-order:fill markers stroke"
     d="M 7.2972288 7.596952 L 7.2972288 59.999953 L 60.436102 59.999953 L 60.436102 7.596952 L 7.2972288 7.596952 z M 16.613456 12.144478 A 5 5 0 0 1 20.164143 13.574365 L 33.196422 26.351879 L 46.228701 13.574365 A 4.9999952 4.9999952 0 0 1 49.779389 12.144478 A 4.9999952 4.9999952 0 0 1 53.300621 13.644645 A 4.9999952 4.9999952 0 0 1 53.230341 20.715014 L 40.338622 33.354552 L 53.230341 45.99409 A 5 5 0 0 1 53.300621 53.064459 A 5 5 0 0 1 46.228701 53.134739 L 33.196422 40.357225 L 20.164143 53.134739 A 4.9999952 4.9999952 0 0 1 13.091707 53.064459 A 4.9999952 4.9999952 0 0 1 13.161987 45.99409 L 26.053706 33.354552 L 13.161987 20.715014 A 5 5 0 0 1 13.091707 13.644645 A 5 5 0 0 1 16.613456 12.144478 z " />
  <path
     id="path3"
     style="fill:#fd0000;fill-opacity:1;fill-rule:evenodd;stroke:none;stroke-width:0;stroke-linecap:round;stroke-linejoin:round;stroke-dasharray:none;stroke-dashoffset:4.68;stroke-opacity:1;paint-order:fill markers stroke"
     d="m 10.476621,4.0266809 c -3.0255354,0 -5.4611654,2.4356296 -5.4611654,5.4611652 V 57.221365 c 0,3.025536 2.43563,5.461165 5.4611654,5.461165 H 57.25671 c 3.025535,0 5.461165,-2.435629 5.461165,-5.461165 V 9.4878461 c 0,-3.0255356 -2.43563,-5.4611652 -5.461165,-5.4611652 z m 1.63866,4.3568398 h 43.502253 c 1.799895,0 3.248896,1.4490023 3.248896,3.2488973 v 43.444375 c 0,1.799895 -1.449001,3.248897 -3.248896,3.248897 H 12.115281 c -1.799895,0 -3.2488974,-1.449002 -3.2488974,-3.248897 V 11.632418 c 0,-1.799895 1.4490024,-3.2488973 3.2488974,-3.2488973 z" />
  <g
     id="path14215"
     style="opacity:1" />
</svg>
