/* XPM */
static char *flexcpu[] = {
/* width height ncolors chars_per_pixel */
"32 32 3 1",
/* colors */
"  c #000000",
". c #00FF00",
"X c None",
/* pixels */
"                                ",
"                                ",
"                                ",
"                                ",
"                                ",
"                                ",
"                   ...          ",
"                 ......         ",
"               ....  ...        ",
"             ....      ..       ",
"           ....         ...     ",
"         ....             ..    ",
"        ...                ..   ",
"      ....                  ..  ",
"    ....                  ..... ",
"  ....                  ....... ",
"  ...     ..          ........  ",
"  ..    .....       ....... ..  ",
"  ..........      ........  ..  ",
"   ........     ....... ..  ..  ",
"    .....     ........  ..  .   ",
"    ......  ....... ..  ..      ",
"    .. ...........  ..  .       ",
"    ..  ....... ..  ..          ",
"    .    .....  ..  .           ",
"            ..  ..              ",
"            ..  .               ",
"            ..                  ",
"            .                   ",
"                                ",
"                                ",
"                                "
};
