/* XPM */
static const char * flexemu[] = {
"16 16 26 1",
" 	c None",
".	c #808080",
"+	c #000000",
"@	c #131613",
"#	c #131713",
"$	c #131813",
"%	c #76FF00",
"&	c #78FF00",
"*	c #80FF00",
"=	c #7EFF00",
"-	c #7DFF00",
";	c #7AFF00",
">	c #020B03",
",	c #7FFF00",
"'	c #7CFF00",
")	c #080F09",
"!	c #0D1709",
"~	c #030D03",
"{	c #091009",
"]	c #000800",
"^	c #000900",
"/	c #ECECEC",
"(	c #EDEDED",
"_	c #4C4C4C",
":	c #4E4E4E",
"<	c #5B5B5B",
"................",
".+@####$#####@+.",
".%&**++*=**+++*.",
".*++=++*+++*+-+.",
".****++*;*++*>+.",
".*++,++*+++*+*+.",
".*++,',****+++*.",
".)+++++++++++++.",
".!*+++,+++*+++~.",
".***+***+**,++~.",
".{*+++*+++*+++~.",
".+]]^]]^]]]]]]+.",
"................",
"........../.(.(.",
".........._.:.<.",
"................"};
