/* XPM */
static char *author[] = {
/* width height num_colors chars_per_pixel */
"    94   135       61            1",
/* colors */
". c #09130d",
"# c #1c1810",
"a c #131a23",
"b c #211820",
"c c #102f1c",
"d c #1b252c",
"e c #18382f",
"f c #331d15",
"g c #353318",
"h c #363728",
"i c #343d3d",
"j c #54371e",
"k c #763a1c",
"l c #5c3f46",
"m c #84443e",
"n c #515a3e",
"o c #785e3a",
"p c #875b35",
"q c #856d42",
"r c #985d31",
"s c #976c46",
"t c #af623b",
"u c #b67643",
"v c #485b57",
"w c #4f6c64",
"x c #7d6567",
"y c #84867d",
"z c #b07654",
"A c #b7786b",
"B c #bb8d69",
"C c #b4aaa2",
"D c #d8856c",
"E c #d89671",
"F c #da9e70",
"G c #dd9c7e",
"H c #d8a77b",
"I c #d6a889",
"J c #e6a886",
"K c #e5b48b",
"L c #dea99f",
"M c #dabfaf",
"N c #efbd98",
"O c #f5c0aa",
"P c #d5d4c8",
"Q c #d4d8d9",
"R c #f0d9c9",
"S c #f1e0d7",
"T c #dce8e5",
"U c #e7e2de",
"V c #efdede",
"W c #e7ece9",
"X c #efe7de",
"Y c #f7e1e1",
"Z c #f2ede6",
"0 c #f3f7f1",
"1 c #ffe6de",
"2 c #ffefeb",
"3 c #fff7e7",
"4 c #fff7ef",
"5 c #fffff7",
"6 c #000000",
/* pixels */
"ZZZZZ22222222222222222222222222222222222222222222242242424222442224444442444224444444444444444",
"Z2222Z2222222222222222222222224222222222222222222244424422424222424444444424444442444444444444",
"2Z22Z22222222222222222222222222222222222222222222222242222224444224444444444424444444444444444",
"2Z22222222222222222222222222222222222222222222222222222222222422422242442444444444444444444444",
"2Z32222222222222222222222222222222222222444442222444222222222222222442224244444444444444444444",
"2222222222222222222222222242222222224444ZTQT4554ZQP0544422222224444242242222424444444444444444",
"222222222222222222422222222222222444UMCywjjhwyyyyojwCCQ454222222242442222442224444444444444444",
"222222222222222222222222222222442MQMyqooolooghhjnlnooonnCT554222222224442242444244444424444444",
"2222222222222222224222222222252TynooqqqoqoloBojlhhjjnjjjhgxCT542222222224424224444424444444444",
"22222222242222222222222222245MxnooooooooojooqqoohjnolhhjihhnnyQ5422222442224244444444444444444",
"2222222222242222244222222244Cooqoqoqqjojjloojojjjhnjjjghhhhiihny042222222442424444224444444444",
"22222222222222242222422222PyoqoooqooojjjhjjojooljhhhnjfhgfdfdhggyW4222244222222222444444444444",
"2222422222244442444222244CxooqqooooooogjhoooojpjjgjjghhhfgbhhhhijwT522222442222244444444444444",
"222222244222224422222244CqqsoqqoohoqoogjhqoookqojhjjhgbbgfbbfhhhihvW42242424222244244444444444",
"2222222222242224222224Pyoqqspqqojjooqofjkoloojokfgljggghhbfghghfhhjw04222224242224224444444444",
"222222242422424242222Pypooossolojll#oqjjzjjokjol#foojhffbfdfghfhihngy5222222422222224424444444",
"222424224224242242244ABqoooqspjjopfjloojooghogjjbhpojfhhbfbhhgffhhnngC522222242442244444444444",
"24222222242424222224VBssqolosqjboHsqqojojpjjjhgf#folj#hf#bfhhbgghhhjhgT42222222222424224444444",
"24222224422442222222CBqqqoojqpjg#ozsqqpjojjggg##dbojgbjhbbbhgdbbdihhnjwW2222224242222244444444",
"2244444222242424222ZBsqqooqjookfbjspjkopokgfhfhb#flfbdfagdbff#fghhhghnjC4222224224244244444444",
"442244244222422222ZCBqqoojsqjoofbhgojjgjojjbh#bfbhfffb#fb##bgbbghgghhhjv0422222444422442444444",
"424244422242244242XIsqoojjqskjpjbbgjgjhhjjgfbfbbbb#g#bfbbbb#b#bhhhghglnjC522222224242244444444",
"444244424422242422XCAooojjjpjgjj##ggjofffjff#g#fbff#bf#b#b##bfbbfhhhhhhhjC52222244222244424444",
"44244422242444424ZMCBqoojhjjkbhjb#dfgjfjffggbf##f#bbgbbb#bb#ab#bbhhhjhfhngQ4222222422444444444",
"44444244444224224XMBBzspojjjfg#gfbbb#lbgf#fbfff###ffff######bbbbfffghjjgigw5222244222222224444",
"44444444444442224SBsqzqojjjfbfgfb##bb#fbffffghf#ffgfb#b#bb#b####bbhhghjhhngQ422242442224224424",
"44444444442244445Cqzssqojgjf#ffff#ba#bbbfffjjjjjjjjffff####hbb#b#bfbghhhghcy522242224244422444",
"44444444444422442sszqoqookjjfbfgjb#bfffkkjkkkkkkkkkkkjjfgf###bbbghhgfhghhhdw522224442224244442",
"4444444444424424Vszsooojkkkjjkkjkkkkkkkkrrprpprrrkqpkkkkjfff#bbbfffhgfgghhhcW42224224242224244",
"4444444444444245Mqqsspookkpprrrrrprrrrutrtstrtrrutrrrprrkkjjj###bgfhhhghghh#P42224442222244244",
"4444444444242442Bqzsqqospsutzzuuuttuuuzzuuzuuuuuuzuzttrrrpkkjfbb##gghhgfhhhgy52222222424244444",
"444444444444244XsssqoosppzBBEEBzzBuuzBBzzzzzzzzzzBzzuuusssrpkjgbgffhghhgghdgi42222224224444444",
"444444444422424RqsqoooqkzBFJHJFEEEEEEEEEBEBuzBBBBBBzzzuzuttsrkgfhhgfghghbhhhgT4222224222222244",
"444444444444225CzqqoqsksHJKNKKJJHHHFFFFEEEDBBBEBEBBzzzzuzuttspj#bhggghggfdhhcP4222224242444224",
"444444444444445CoossspkBKNNKNKNKKJHHJHHFFEEBEBBBBBBBBzzuuustspkg##hffghfdffhgC4222224222244444",
"444444444444444LoosqsppKNNNNNNNNKJJJKJJJJFEBEEBBBBBzzzzzzzsutpoj#fhhf#ffffdhgy4222222224444444",
"444444444442444MossqskzNNNNNNNNKKKJKHFHHHFEDEBBBBBBBzzzzzzuzsskjffffhffbbbbbcw4222224422242224",
"444444444442425MozsssoHNNNNNNNNKKNJJJGHJJGEEBBBzBzzzzzzzzzszzsokgfbh#b##bfbbccT422222222242244",
"444444444442445MosqzqpINNNNNNNNKKKKKKJJJJEFEBDBzzuuuuzzBzzuzzskjhf##b#fb#bbbccP422222424244444",
"444444444444245MqsqzoqKNNNNNNNNNNNKKKJHJJGHEEBDDBzzzuuzzzuzzzzskgfb#bb##bbbb#cC522222422222244",
"444444444444245CoqssjsKNNNNNNNNNNNKNKJKJJJHJFEEEBBzzsszuzzzzzzskgg###gbb#bbbacC422222222222222",
"444444444444445AjozoozINNNNNNNNNOKNNKJJFJJJJFEDEBzzzspkszuzzzszrjf###bbbbbbba.P422222424244444",
"444444444444245zosohqzIKNNNONNNONNKKJJJHJJHEEEBBzsoooookkqszszzspgb##bba###ba.P422224422444244",
"444444444444445BoojgspKKNNNNNKKKKNJKJJJEEJEBztqkjgghljjljjozzzssskfb#b####bba.Q422224244424444",
"444444444444245CqojhoqKKNKEIHHEHBBGEHHJEEEzurjb##bfghllokjoqssssspgbb#baaabbceT422224224424444",
"444444444444445LoojghqKNKBBBzsookotzEJJEBBurkjjfhjjkjjjhoolosssstpjb#####baa.v4222222422422244",
"444444444444424PognhdoNKzssskfg#fjoptEHHBzupkojjjjkkpppkjgoopsssspgb###b.#aa.y4222222222224224",
"444444444444424MonhhgjKBzspqqqsmjgkprEJJDzsrkllbjfb..bfjkk#.dhfhggb##.#a.fjf.C4222222424242424",
"4444444444444422LjhhhoIzsBzssqoljgbjruKKBuusolhjfgb.bdbbfkjbppqssrg###b#abgr.C4222222442222224",
"4444444444444444VqhhhjIBAAzslddb#fjgjonhfa.osmjfoj..ahjb#jkozzzzAsk#####bgfmgC2222222444224244",
"44444444444442442ChhibxEBBshlliabhljofzJDtkqspkjkmkjjkkkkkkjzzzzuzpb####amkkoP2222222422422224",
"44444444444444444Sogn.BHBsjjCyda#ljjojGKGDkolkkkkprrrtssrsuoBBzzzzp#b###hrskx02222222442222444",
"444444444444444444SycoKJEsopszmkkkkkojNOGDrahrkkkkkkkkprtttoBzzzzztk#bb.jztkA4Z222222442422224",
"4444444444444444444MhnNJBzBEEBurrkkppgNNGDtj.prpkmkpprrrtutsEAzsszzp##..jBzkA52222224424222444",
"44444444444444444442xgIKJHHHEurrkrrutqONGDzkjprrrrrrttrtrzrzzAzzzzsrg.hjjmzkA52222222242244424",
"444444444444444442455ABNKKJDuttuuuuEzBONEDBtjkrrtttttttttuoBBzzzzszsj#szkkzkB52222222422222422",
"444444444444444444425LoNKKFFEFEBEBEHtNONEEDArjrrttuuttttupzBBzzzszssojzBskzkC42222222222242224",
"444444444444444444425RsBNJJFFFEEEFFFrOOKEDBAzkjrtttuutttpsEzzAzzzzsqqqBBzjskM42222224442244444",
"444444444444444444424ZDNBNJHEFEEEFFtGOONEDAAutkjptuuutrrtuBzzzzzssqqqqBzpkzkQ42222244224242244",
"4444444444444444444225DNGBNJEFFHEFFuOONKJEBBAArkkjjkkrpAzzBzzzsssssqqszkkzurT22222224442222444",
"4444444444444444444445OJOJzFJFFGFsrBNNJGEzzuBBupruzzzBBBBBBzssssspqqqsztzBrz042222222444442244",
"4444444444444444444444ZHNOONEBzsrtuOKNEzzuk#pzumszEEEEEBBBBzsssssqqqqqzBBAzB422222222422222444",
"44444444444444444444245JKNOOOKJGGBAKupBrzpmjkttruuBEEEBBBBBzssssqqqoqszzzzrP422222222222442244",
"44444444444444444444445ONNNONKNJGBBJukrDtrsrkkksAAzBEEBBBBBzssssqqqqqsAAAzA0222222224424224444",
"44444444444444444444424RKNNONKKGzzGKGtAHEzzsssszABAuBBzzBzzsssqqqqqqqzAAztC4222222222222244244",
"444444444444444444444442NNNNKKHBuGJKIGKIGAzsssszzABBzuuzBzssssspqqqqqszzsnQ4222222242444242244",
"444444444444444444444445ONKKKHEzBKKKIIKEBBzzsssszzzzAsszzBsssqspqqqqykpg.v52222222242222244444",
"444444444444444444444225RKKKJEEAIJIKJKKAzEBzzzzszzzzzzszzzssqqqqsqqqqsr#.C52222222224422244244",
"4444444444444444444444442KKKHHBIIJIKIKJzzHEzzzzAzzszsssszzzqqsqsssqqxzr#.y52222222222222244244",
"4444444444444444444444425OKKHEBKIIIIJKNABJGDzBABBzszsssqBzssqsqsqqqqzzrc.P42222222242442444444",
"4444444444444444444444445RJKIEBNIIIKKONJJJEzAzABBzsrpsqszzssqqqqqqqqzzz#cZ22222222222424444444",
"44444444444444444444444441KKJEHIIJNONJDEEttttttrrpkkpssAzssqqssqqqqxzzt.v522222222224224444444",
"44444444444444444444444442JKKJHJHHJJAutDurmrrkrmmmzzsszBzssqqqqqqqqxzzs#C422222242422442424444",
"44444444444444444444444445KIJKEHBrrtDDADDDDDtAAAABzzzzszzsqqqpqqqqqqzzs#Q422222222224424444444",
"44444444444444444444444445OIKKJHBAJOOONLLJEDDAAAAzzzzzszsqpoqoqqqoqqsssjT422222224242444442444",
"444444444444444444444444241IIKKEHJOOOONNJJGEEBAzzzzzzsspsoooooqqopqqsssy5222222224224224444444",
"444444444444444444444444445KIKIHEKNNNKEDEzuzzzsszzuzsqqqqooooooooqqqsssyT222222422222444444444",
"444444444444444444444444245SHIIEHKKKJEAzsrsrppsszzzssoqqoooooooooooszssxQ222222222224424444444",
"4444444444444444444444444445IIIHEJKKJBzussspmpssszsppoqoooooooooooqssssyP222224442224444444444",
"4444444444444444444444444444ZBIHHIHJGEBuzzsrrssuAspoooooooooooooooqssssxQ222222224442224444444",
"44444444444444444444444444445OBBHHHHEEBzzzrrrssssssqoppooooooooolosssssqCZ22222242222444444444",
"444444444444444444444444444445HBEGEBBBBEBBAzszzssssqsoooooooooolooqqsssxMP22222224424244444444",
"4444444444444444444444444444251BBHHHEBIEGGEBABzsqssssooooooooojlopqqsrssPZ42224422224442244444",
"4444444444444444444444444444425OBBHIHIILGEBBBBzssssqqoojoooojjjoooqsssssyQ52422242422444444244",
"44444444444444444444444444444445IBHHIIKKHEEABBssssqsqooonljjljjoqqqqssssyyy5224222244444244444",
"444444444444444444444444444442245IBHIIIIHBzszzqqqqqoqolljljljjoooqpqssssxQgw542222222224444444",
"4444444444444444444444444444442444HBIEEBBBpsspooqooooolnjljjjloooqssssssoQM6y52222224422444444",
"4444444444444444444444444444444245OBBBBABsoqqqoooookjjjljjljkoooooosssssxPUy.P5222222244444444",
"4444444444444444444444444444444445OEBzzzsqoooooooolljjljjjjkooooopqssssrySUyccT522224244422444",
"4444444444444444444444444444442425RFIzsssqoooojlljlnljjjjkloooooqpqssssoQRQyceeT52222222444244",
"4444444444444444444444444444444424SHHJAooooollljjjlljjljlooooooopsssssrCVPQyaeeeT5222442244444",
"44444444444444444444444444444444441HHHGBsoollnjljhjjjkokooooooqmqspssryUPPQyaeeeeQ522222424224",
"44444444444444444444444444444444242EIHEHBAsqojjjjjkkooooooooopppsqszrxQUPPUxaeeeecC54222244244",
"44444444444444444444444444444424244JJIEHBBBzpppkkpokmoooooooorspsssrxQUPPPQhdddbeecy5544222222",
"44444444444444444444444444444444425JEIHEBBBBzssppppooooopooopqpossrmQUPPQQM.eddeddecey05422242",
"44444444444444444444444444444444425OEHHEHBBBzzzssspppooopoorrpqssrxQUQQQPUC.aaddddedeccyT55224",
"44444444444444444444444444444444444REGEEEBBBBzzsspoopoooopoppossrxQUPPPQQUnaddbdddddddea.wP554",
"444444444444444444444444444244442441FEEHEBBBBBzsspooooopprqprssryUUPUPQPUP.cdaddbddddddeeccvP5",
"44444444444444444444444444444244422ZHHGEEEBBBBzzspoopopppspsssrCZUUUQPPQUCadabddddddddadddddcv",
"4444444444444444444444444444444444M5NJHHEEEBBBzsqppopsssppssrrMZUUUQQQQPUnadddddddddbbbbddeedd",
"4444444444444444444444444424422243y5ZDKJHEEEBBzspkrsstsrrsztsPXUUUQPPPPUCadddddddbddddbddbadie",
"444444444444444444444444442444424Rv54RBKJEEEEBBzrCtsssssszrAUUUUUPUPQQPQyaddaddddddddbbbdddadd",
"444444444444444444444444444444245Ci224LBKHHEEEBzsrsssrsuurCZUUUUUQQQPQUPhcdbbdbddddbbdbbdddedd",
"4444444444444444444424444422445ZCwiZ225RuJJHEEEzurrtzuzusPZSUPPUUUUPQQQCadadaddddbdadbbbaddddd",
"444444444444444444444444224454CvwweT2Z25RuFJHEEBBtuuuutAVXUPUUPUUUQQPQPnaddddbaddddddaabdddddd",
"4444444444444444444444444454CwweyweP4ZZ24ZBuFHEEzuzzzuBZXSUUUUUUUPPPQPCeedbbadbddddddbbadddddd",
"44444444444444444444244454Cwvwdvwwey4ZZZ324RBzFFBzzzuL2ZSUSUUUUUUPPQQPycdddddbdddddddaabdddddd",
"444444444444444444244454Cvvwwibwvwiw5ZZZZ3324MEBBztBY4XUUUUSUSUUUQQQQPndddddddddddadddbadddded",
"4444444444444444422454Cvvwwwiaiwvvie43ZZZZZ3244XMRRU4XXXXUUUSUUUUQUUUCcedadddddaddddddbabddddd",
"44444444444444444455Pwwwwwwvdbwvvvic0ZZZZ3ZZ24RwQPCCP2XXUUUUUUUUUUUUQwceddddddddedddeddadddeei",
"444444444444444245PywwwwwywdaewvvvicQ2Z3323243#yyxwxxZZXUUUUUUUUUUUSMeedddaddadddddedddbadddde",
"4444444444444245Xywwwwwwywda#vwvvvieQ2Z332225ovCCCxxxy4XUUSUUUUUUUUUyeeddadaddddeaddaddaaddede",
"444444444442455Cwwwwwwvwwid#dwwvvvieT22233Z4MiyhxCCyxvC4UUUUUUUUUUSMheedadddddddddddbdaabdddee",
"4444444444445Xywxwwwwvywidb#iwvvvvieT2333224oyylxlfyyyvPZUUUUUUUUUPyedddddadddddddeeddddddeeee",
"44444444445ZCwwwwwwvvwwiedaawvwvvvvcQ422234RdyClAAylbiieZZUUUUUUUUPweeddbdadddddddedddbadeeeee",
"4444444453Cwwwwwwwvvywiidb.ewvvwvvvcP422224CiCyxyyxxxxl.y2UUUUUUUPCededddddaddeddddddedaadeeee",
"44444255CwwwwwwwwvvywviedaavwvvwvvvcC422224qvCxCCxxxlxld6PZUUUUUUPyeeeddaadddededdeedddadddeei",
"444445Uywxxwwwwwvvwwviidabawvvvvvvvew53334RwnCxCyxyAxlia.vZUUUUUPPneedddadadddddededdedaaaeeei",
"44454Cwwwwwwwwvvvwwviidabaiwvvvvvvvec52224BxnCyxxCAld.ddiyPXUUUUQCeededdadddddddedeededadddeie",
"445Pywxxwwwwwvvwwwvviedaaavvvvvvvvvi.U232XyxxCoLCxbiviiiyCCQUUUUPyeidddadddddddedddededaaaeeee",
"54Cwyxwwwwwwvwwwwvviidba#ewvvvvvvvve.C5Z4MyxyxyylwyyviwwCCCMUUUUCeieedddaadddaeeddeededaadddei",
"Zywyxwwwwwwwwwwwvviiedaaavvvvvvvvvvicv523CCyCCxlAtmxlvxyCCCMUUUUxiieedddaeddeeeeededdeedaadeee",
"ywxxxwwwwwwwvwvvvviieda.dwvvvvvvvvvic.02SMMyCMCylDDAmmyyMCCMPUUCeeieddddaddeddddedeededdadddei",
"yyxwwwwwwwwvvvvvviiedbaavvvvvvvvvvvie.P5RPPCPPACyxExlfyyCCCPUUPniieeaddddddddeedddeddieabdddee",
"yxwwwwwwwvvvvvvvviedda#evvvvvvvvvvvee.y5PPPMPPAyyCxliewyCCCPUPyiiidddeddddeddeedeeeedieddbbdde",
"xxwwwwwwvvvvvvvvvieaabaiivvvvvwvvviiecvZPPURPMxlllxClivyCCCPUQyviieeddaddddedddeedeediiddadddd",
"xwwwwwwvvvvvvvvvvedaaaeiivvvvvvvvviiiceCPPUSUCxxxlllidiyCCMPUPyiiieddddedddeeeeeeeeideeeddadde",
"xwwwwwwvwvvvvvvviedaaaiivwvvvvvwviviiceCMPUUUBxxliillllyCCPUUMxiieeddddddaddeeeieeiediiedbdded",
"wwwwwwwvvvvvvvvviedaaeiivvvvvvvvvivieecyCPZUUoxxlilllllxCCPUUCviieecdeddadcdedeeieiideiedddddd",
"wwwwwwwvwvvvvvvvedddaeiivvvvvvvvivvieccyCPZXPxxxhllllllvCCPUSCviieeddaddeddedeeieeeediideddddd",
"wwwwwwwvvvvvivvieedddeeiwvvvvvwvvvviiecwCPZZMCylllxlxxllCyPUPyiiiedddaddadddeeeieeeedeieeddddd",
"wwwwwwvwvviivvviedadeeevvwvvvvvvvwviieciyPZXCAyxllxxxxxlxyMUPyiiededddddedddedeieeeeeeieddddad",
"wwwwwwwvvviiivvieddeeievwwvvvvvivvvvidceyMZZCyyylxxlxxxmxwCUPwiieddadddddddedeieeeiiedieeddddd",
"wwwwwwwvviiivvviedeeiedwwwvvvvvvvvviieccyMZXAyyxlxxxxyxxlwCUMnieeddadedededddeeeedeiediedddddd",
"wwwwwwwvviiivvviiedeeeiwwwivvwivvvvvieccyM2RxyyylxxxyyyxlvCUCiieddaaededededeieeeeiedeieedddad"
};
