/* XPM */
static char *contain_xpm[] = {
/* width height num_colors chars_per_pixel */
"    32    32        6            1",
/* colors */
". c #000000",
"# c #008000",
"a c #808080",
"b c #c0c0c0",
"c c #00ff00",
"d c #ffffff",
/* pixels */
"dddddddddddddddddddddddddddddddd",
"dddddddddd.............ddddddddd",
"dddddddddd.ddddddddddd.ddddddddd",
"dddddddddd.daadaadaaad.ddddddddd",
"dddddddddd.ddddddddddd.ddddddddd",
"dddddddddd.daaaaaaaadd.ddddddddd",
"ddddddd.............dd.ddddddddd",
"ddddddd.ddddddddddd.dd.ddddddddd",
"ddddddd.ddddddddddd.da.ddddddddd",
"ddddddd.daadaadaaad.dd.ddddddddd",
"ddddddd.ddddddddddd.dd.ddddddddd",
"ddddddd.daaaadaadad.dd.ddddddddd",
"ddddddd.ddddddddddd.dd.ddddddddd",
"dddddd#.daaaaaddddd.ad.##ddddddd",
"ddddd#d.ddddddddddd.dd.dd#dddddd",
"dddd#dd.daaaaaaaadd.aa.ddd.ddddd",
"ddddc#d.ddddddddddd.dd.d...ddddd",
"ddddcc####ddddddddd.d##....ddddd",
"ddddcccbcb############c##..ddddd",
"ddddccccbcacacac#c##c####..ddddd",
"ddddcccbcbcacac#c#c###c##..ddddd",
"ddddccccbcacacac#c##c####..ddddd",
"ddddcccbcbcacac#c#c###c##..ddddd",
"ddddccccbcacacac#c##c####..ddddd",
"ddddcccbcbcacac#c#c###c##..ddddd",
"ddddccccbcacacac#c##c####..ddddd",
"ddddcccbcbcacac#c#c###c##..ddddd",
"dddddcccbcacacac#c##c####.dddddd",
"ddddddcccccacac#c#c##ccccddddddd",
"ddddddddddcccccccccccddddddddddd",
"dddddddddddddddddddddddddddddddd",
"dddddddddddddddddddddddddddddddd"
};
