#define flexmain_width 32
#define flexmain_height 32
static unsigned char flexmain_bits[] = {
   0x00, 0x00, 0x00, 0x00, 0x00, 0x00, 0x01, 0x00, 0x00, 0x80, 0x03, 0x00,
   0x00, 0xc0, 0x06, 0x00, 0x00, 0x40, 0x04, 0x00, 0x00, 0x40, 0x04, 0x00,
   0x00, 0x40, 0x04, 0x00, 0x00, 0x40, 0x04, 0x00, 0x00, 0x38, 0x38, 0x00,
   0x00, 0x24, 0xc8, 0xff, 0x00, 0x27, 0xc8, 0x60, 0x80, 0x19, 0xb0, 0x30,
   0xc0, 0xe0, 0x8f, 0x18, 0x70, 0x02, 0x40, 0x1c, 0x18, 0x3c, 0x38, 0x0c,
   0x0c, 0xc0, 0x07, 0x06, 0xfe, 0xff, 0xff, 0x03, 0x00, 0x00, 0x00, 0x00,
   0x00, 0x00, 0x00, 0x00, 0x00, 0x00, 0x00, 0x00, 0x00, 0x00, 0x00, 0x00,
   0x00, 0x00, 0x00, 0x00, 0x00, 0x00, 0x00, 0x00, 0x00, 0x00, 0x00, 0x00,
   0x10, 0x04, 0x01, 0x00, 0x10, 0x04, 0x01, 0x00, 0x7c, 0xdf, 0x07, 0x00,
   0x10, 0x04, 0x01, 0x00, 0x10, 0x04, 0x01, 0x00, 0x00, 0x00, 0x00, 0x00,
   0x00, 0x00, 0x00, 0x00, 0x00, 0x00, 0x00, 0x00};
