/* XPM */
static const char * flexdisk_xpm[] = {
"16 16 13 1",
" 	c None",
".	c #0F0F0F",
"+	c #A0A094",
"@	c #070707",
"#	c #1B1B1B",
"$	c #EFEFDC",
"%	c #060606",
"&	c #232323",
"*	c #000000",
"=	c #9C9C90",
"-	c #166606",
";	c #182A15",
">	c #7FFF00",
".+++++++++@@@@@@",
"#+$$$$$$$++++@@@",
"#+$$$$$$$+$$+@@@",
"#+$$$$$$$+$$+++@",
"#+$$$$$$$+$$+$+%",
"&+*******=$$+$+%",
"**-------*$$+$+;",
"*---------******",
"*--------------*",
"*>>>>-->>>>--->*",
"*>-->-->--->->-*",
"*>>>>-->>>-->--*",
"*>-->-->--->->-*",
"*>-->>>>>>>--->*",
"*--------------*",
"****************"};
