/* XPM */
static const char * flexdisk64_xpm[] = {
"64 64 185 2",
"  	c None",
". 	c #A3A3A3",
"+ 	c #8E8E8E",
"@ 	c #8D8D8D",
"# 	c #909090",
"$ 	c #9E9E9E",
"% 	c #969696",
"& 	c #787878",
"* 	c #010101",
"= 	c #9A9A9A",
"- 	c #2B2B27",
"; 	c #6E6E65",
"> 	c #707067",
", 	c #696961",
"' 	c #0F0F0E",
") 	c #040404",
"! 	c #7D7D7D",
"~ 	c #4F4F4F",
"{ 	c #CECEBE",
"] 	c #EFEFDC",
"^ 	c #919186",
"/ 	c #000000",
"( 	c #8B8B8B",
"_ 	c #3D3D3D",
": 	c #DFDFCD",
"< 	c #A3A396",
"[ 	c #828282",
"} 	c #44443E",
"| 	c #505049",
"1 	c #4A4A44",
"2 	c #050505",
"3 	c #030303",
"4 	c #CACABA",
"5 	c #88887D",
"6 	c #999999",
"7 	c #8C8C8C",
"8 	c #888888",
"9 	c #2D2D2C",
"0 	c #797970",
"a 	c #8F8F84",
"b 	c #5A5A53",
"c 	c #151514",
"d 	c #1F1F1D",
"e 	c #E8E8D7",
"f 	c #BABAB4",
"g 	c #BCBCB8",
"h 	c #B6B6B1",
"i 	c #A6A699",
"j 	c #C1C1BF",
"k 	c #6D6E6D",
"l 	c #3A4139",
"m 	c #343932",
"n 	c #020202",
"o 	c #9B9B8E",
"p 	c #DADAC9",
"q 	c #BEBEBC",
"r 	c #686968",
"s 	c #0F4704",
"t 	c #166606",
"u 	c #166506",
"v 	c #092603",
"w 	c #98988C",
"x 	c #3E3E3E",
"y 	c #BDBDBB",
"z 	c #898989",
"A 	c #ACACAB",
"B 	c #B6B6B6",
"C 	c #686868",
"D 	c #B9B9B9",
"E 	c #626861",
"F 	c #115105",
"G 	c #0B2F04",
"H 	c #AEAEAE",
"I 	c #5C615B",
"J 	c #115205",
"K 	c #156206",
"L 	c #061E02",
"M 	c #272827",
"N 	c #C5C5C4",
"O 	c #C2C3C2",
"P 	c #C7C8C7",
"Q 	c #C8C9C8",
"R 	c #C6C7C6",
"S 	c #C3C3C3",
"T 	c #C4C5C4",
"U 	c #595C59",
"V 	c #6E716D",
"W 	c #104A04",
"X 	c #145B05",
"Y 	c #155D05",
"Z 	c #156006",
"` 	c #145F05",
" .	c #0A2F03",
"..	c #051701",
"+.	c #092D03",
"@.	c #0A3003",
"#.	c #0A2C03",
"$.	c #010500",
"%.	c #000100",
"&.	c #C8C8C8",
"*.	c #092C03",
"=.	c #0D3E04",
"-.	c #C4C4C4",
";.	c #0C3603",
">.	c #104904",
",.	c #227705",
"'.	c #7FFF00",
").	c #55C102",
"!.	c #5CCB02",
"~.	c #43A703",
"{.	c #308C04",
"].	c #44A903",
"^.	c #379604",
"/.	c #6FE601",
"(.	c #186806",
"_.	c #1D7106",
":.	c #79F600",
"<.	c #7EFD00",
"[.	c #278005",
"}.	c #65D902",
"|.	c #41A504",
"1.	c #52BE03",
"2.	c #7EFE00",
"3.	c #62D402",
"4.	c #7AF800",
"5.	c #2A8305",
"6.	c #77F200",
"7.	c #1C6E06",
"8.	c #267D05",
"9.	c #7DFC00",
"0.	c #7AF700",
"a.	c #1F7405",
"b.	c #7DFB00",
"c.	c #6EE501",
"d.	c #57C502",
"e.	c #4DB703",
"f.	c #5FD002",
"g.	c #48AF03",
"h.	c #217605",
"i.	c #7BF800",
"j.	c #7CFA00",
"k.	c #3D9E04",
"l.	c #74EE01",
"m.	c #196B06",
"n.	c #4AB203",
"o.	c #7FFE00",
"p.	c #3B9D04",
"q.	c #53BF02",
"r.	c #1A6C06",
"s.	c #74EF01",
"t.	c #69E001",
"u.	c #166706",
"v.	c #6CE301",
"w.	c #3EA004",
"x.	c #308C05",
"y.	c #4CB403",
"z.	c #7BF900",
"A.	c #59C702",
"B.	c #2B8405",
"C.	c #2B8605",
"D.	c #7DFD00",
"E.	c #207405",
"F.	c #65D901",
"G.	c #56C302",
"H.	c #379704",
"I.	c #78F500",
"J.	c #288105",
"K.	c #186906",
"L.	c #70E901",
"M.	c #359204",
"N.	c #45AB03",
"O.	c #62D502",
"P.	c #63D602",
"Q.	c #186A06",
"R.	c #71EB01",
"S.	c #349104",
"T.	c #A1A2A1",
"U.	c #0B3103",
"V.	c #0F4404",
"W.	c #000200",
"X.	c #010600",
"Y.	c #0D3C04",
"Z.	c #0E4104",
"`.	c #030E01",
" +	c #000300",
"          . + @ @ @ @ @ @ @ # $ $ $ $ $ $ $ $ $ $ $ $ $ $ % @ @ @ @ @ @ @ & *                                                   ",
"        = - ; > > > > > > > > > > > > > > > > > > > > > > > > > > > > > > , ' )                                                 ",
"      ! ~ { ] ] ] ] ] ] ] ] ] ] ] ] ] ] ] ] ] ] ] ] ] ] ] ] ] ] ] ] ] ] ] ] ^ /                                                 ",
"      ( _ : ] ] ] ] ] ] ] ] ] ] ] ] ] ] ] ] ] ] ] ] ] ] ] ] ] ] ] ] ] ] ] ] < /                                                 ",
"      ( _ : ] ] ] ] ] ] ] ] ] ] ] ] ] ] ] ] ] ] ] ] ] ] ] ] ] ] ] ] ] ] ] ] < /                                                 ",
"      ( _ : ] ] ] ] ] ] ] ] ] ] ] ] ] ] ] ] ] ] ] ] ] ] ] ] ] ] ] ] ] ] ] ] < / ! % % % % % % % [ /                             ",
"      ( _ : ] ] ] ] ] ] ] ] ] ] ] ] ] ] ] ] ] ] ] ] ] ] ] ] ] ] ] ] ] ] ] ] < / } | | | | | | | 1 2 3                           ",
"      ( _ : ] ] ] ] ] ] ] ] ] ] ] ] ] ] ] ] ] ] ] ] ] ] ] ] ] ] ] ] ] ] ] ] < / 4 ] ] ] ] ] ] ] ] 5 /                           ",
"      ( _ : ] ] ] ] ] ] ] ] ] ] ] ] ] ] ] ] ] ] ] ] ] ] ] ] ] ] ] ] ] ] ] ] < / 4 ] ] ] ] ] ] ] ] < /                           ",
"      ( _ : ] ] ] ] ] ] ] ] ] ] ] ] ] ] ] ] ] ] ] ] ] ] ] ] ] ] ] ] ] ] ] ] < / 4 ] ] ] ] ] ] ] ] < /                           ",
"      ( _ : ] ] ] ] ] ] ] ] ] ] ] ] ] ] ] ] ] ] ] ] ] ] ] ] ] ] ] ] ] ] ] ] < / 4 ] ] ] ] ] ] ] ] < /                           ",
"      ( _ : ] ] ] ] ] ] ] ] ] ] ] ] ] ] ] ] ] ] ] ] ] ] ] ] ] ] ] ] ] ] ] ] < / 4 ] ] ] ] ] ] ] ] < /                           ",
"      ( _ : ] ] ] ] ] ] ] ] ] ] ] ] ] ] ] ] ] ] ] ] ] ] ] ] ] ] ] ] ] ] ] ] < / 4 ] ] ] ] ] ] ] ] < /                           ",
"      ( _ : ] ] ] ] ] ] ] ] ] ] ] ] ] ] ] ] ] ] ] ] ] ] ] ] ] ] ] ] ] ] ] ] < / 4 ] ] ] ] ] ] ] ] < / [ 6 6 7 8 8 8 9           ",
"      ( _ : ] ] ] ] ] ] ] ] ] ] ] ] ] ] ] ] ] ] ] ] ] ] ] ] ] ] ] ] ] ] ] ] < / 4 ] ] ] ] ] ] ] ] < / 0 a a a a a a b /         ",
"      ( _ : ] ] ] ] ] ] ] ] ] ] ] ] ] ] ] ] ] ] ] ] ] ] ] ] ] ] ] ] ] ] ] ] < / 4 ] ] ] ] ] ] ] ] < / 4 ] ] ] ] ] ] ] c /       ",
"      ( _ : ] ] ] ] ] ] ] ] ] ] ] ] ] ] ] ] ] ] ] ] ] ] ] ] ] ] ] ] ] ] ] ] < / 4 ] ] ] ] ] ] ] ] < / 4 ] ] ] ] ] ] ] d /       ",
"      ( _ : ] ] ] ] ] ] ] ] ] ] ] ] ] ] ] ] ] ] ] ] ] ] ] ] ] ] ] ] ] ] ] ] < / 4 ] ] ] ] ] ] ] ] < / 4 ] ] ] ] ] ] ] d /       ",
"      ( _ : ] e f g g g g g g g g g g g g g g g g g g g g g h i ] ] ] ] ] ] < / 4 ] ] ] ] ] ] ] ] < / 4 ] ] ] ] ] ] ] d /       ",
"      ( _ : e j k l l l l l l l l l l l l l l l l l l l l l m n o ] ] ] ] ] < / 4 ] ] ] ] ] ] ] ] < / 4 ] ] ] ] ] ] ] d /       ",
"      ( _ p q r s t t t t t t t t t t t t t t t t t t t t t u v n w ] ] ] ] < / 4 ] ] ] ] ] ] ] ] < / 4 ] ] ] ] ] ] ] d /       ",
"      ( x y r s t t t t t t t t t t t t t t t t t t t t t t t u v n w ] ] ] < / 4 ] ] ] ] ] ] ] ] < / 4 ] ] ] ] ] ] ] d /       ",
"      z A r s t t t t t t t t t t t t t t t t t t t t t t t t t u v n w ] ] < / 4 ] ] ] ] ] ] ] ] < / 4 ] ] ] ] ] ] ] d /       ",
"      B C s t t t t t t t t t t t t t t t t t t t t t t t t t t t u v n w ] < / 4 ] ] ] ] ] ] ] ] < / 4 ] ] ] ] ] ] ] d /       ",
"    D E F t t t t t t t t t t t t t t t t t t t t t t t t t t t t t u G n w < / 4 ] ] ] ] ] ] ] ] < / 4 ] ] ] ] ] ] ] d /       ",
"  H I J t t t t t t t t t t t t t t t t t t t t t t t t t t t t t t t K L M N O P Q Q Q Q Q Q Q Q R O P Q Q Q Q Q Q Q S T U /   ",
"= V W X X X X X X X X X X X X X X X X X X X X X X X X X X X Y Z Z Z Z Z `  ...+.@.@.@.@.@.@.@.@.@.@.@.@.@.@.@.@.@.@.@.@.@.#.$.%.",
"&.*.t t t t t t t t t t t t t t t t t t t t t t t t t t t t t t t t t t t t t t t t t t t t t t t t t t t t t t t t t t t t =./ ",
"-.;.t t t t t t t t t t t t t t t t t t t t t t t t t t t t t t t t t t t t t t t t t t t t t t t t t t t t t t t t t t t t >./ ",
"-.;.t t t t t t t t t t t t t t t t t t t t t t t t t t t t t t t t t t t t t t t t t t t t t t t t t t t t t t t t t t t t >./ ",
"-.;.t t t t t t t t t t t t t t t t t t t t t t t t t t t t t t t t t t t t t t t t t t t t t t t t t t t t t t t t t t t t >./ ",
"-.;.t t t t t t t t t t t t t t t t t t t t t t t t t t t t t t t t t t t t t t t t t t t t t t t t t t t t t t t t t t t t >./ ",
"-.;.t t t t t t t t t t t t t t t t t t t t t t t t t t t t t t t t t t t t t t t t t t t t t t t t t t t t t t t t t t t t >./ ",
"-.;.t t t t t t t t t t t t t t t t t t t t t t t t t t t t t t t t t t t t t t t t t t t t t t t t t t t t t t t t t t t t >./ ",
"-.;.t t t t t t t t t t t t t t t t t t t t t t t t t t t t t t t t t t t t t t t t t t t t t t t t t t t t t t t t t t t t >./ ",
"-.;.t t t t t t t t t t t t t t t t t t t t t t t t t t t t t t t t t t t t t t t t t t t t t t t t t t t t t t t t t t t t >./ ",
"-.;.t t t t t t t t t t t t t t t t t t t t t t t t t t t t t t t t t t t t t t t t t t t t t t t t t t t t t t t t t t t t >./ ",
"-.;.t t t t t t t t t t t t t t t t t t t t t t t t t t t t t t t t t t t t t t t t t t t t t t t t t t t t t t t t t t t t >./ ",
"-.;.t t t t t t ,.'.'.'.'.'.'.'.'.'.).t t t !.'.'.~.t t t t t t t t {.'.'.'.'.'.'.'.'.'.].t ^.'.'./.(.t t t _.:.'.<.[.t t t >./ ",
"-.;.t t t t t t ,.'.'.'.'.'.'.'.'.'.).t t t !.'.'.~.t t t t t t t t {.'.'.'.'.'.'.'.'.'.].t t }.'.'.|.t t t 1.'.'.).t t t t >./ ",
"-.;.t t t t t t ,.'.'.2.3.3.3.3.3.3.~.t t t !.'.'.~.t t t t t t t t {.'.'.4.3.3.3.3.3.3.^.t t 5.2.'.6.7.t 8.9.'.0.a.t t t t >./ ",
"-.;.t t t t t t ,.'.'.b.t t t t t t t t t t !.'.'.~.t t t t t t t t {.'.'.c.t t t t t t t t t t d.'.'.e.t f.'.'.g.t t t t t >./ ",
"-.;.t t t t t t ,.'.'.b.t t t t t t t t t t !.'.'.~.t t t t t t t t {.'.'.c.t t t t t t t t t t h.i.'.j.k.'.'.l.m.t t t t t >./ ",
"-.;.t t t t t t ,.'.'.b.t t t t t t t t t t !.'.'.~.t t t t t t t t {.'.'.c.t t t t t t t t t t t n.'.'.o.'.'.p.t t t t t t >./ ",
"-.;.t t t t t t ,.'.'.2.3.3.3.3.3.3.t t t t !.'.'.~.t t t t t t t t {.'.'.4.3.3.3.3.3.q.t t t t t r.s.'.'.'.t.u.t t t t t t >./ ",
"-.;.t t t t t t ,.'.'.'.'.'.'.'.'.'.t t t t !.'.'.~.t t t t t t t t {.'.'.'.'.'.'.'.'.v.t t t t t t w.'.'.'.x.t t t t t t t >./ ",
"-.;.t t t t t t ,.'.'.'.'.'.'.'.'.'.t t t t !.'.'.~.t t t t t t t t {.'.'.'.'.'.'.'.'.v.t t t t t t y.'.'.'.w.t t t t t t t >./ ",
"-.;.t t t t t t ,.'.'.b.t t t t t t t t t t !.'.'.~.t t t t t t t t {.'.'.c.t t t t t t t t t t t h.z.'.'.'.s.r.t t t t t t >./ ",
"-.;.t t t t t t ,.'.'.b.t t t t t t t t t t !.'.'.~.t t t t t t t t {.'.'.c.t t t t t t t t t t t A.'.'.4.'.'.n.t t t t t t >./ ",
"-.;.t t t t t t ,.'.'.b.t t t t t t t t t t !.'.'.~.t t t t t t t t {.'.'.c.t t t t t t t t t t B.o.'.6.C.D.'.i.E.t t t t t >./ ",
"-.;.t t t t t t ,.'.'.b.t t t t t t t t t t !.'.'.~.t t t t t t t t {.'.'.c.t t t t t t t t t t F.'.'.|.t 1.'.'.G.t t t t t >./ ",
"-.;.t t t t t t ,.'.'.b.t t t t t t t t t t !.'.'./.3.3.3.3.3.3.t t {.'.'.4.3.3.3.3.3.3.^.t t H.'.'./.(.t _.I.'.2.J.t t t t >./ ",
"-.;.t t t t t t ,.'.'.b.t t t t t t t t t t !.'.'.'.'.'.'.'.'.'.t t {.'.'.'.'.'.'.'.'.'.].t K.L.'.'.M.t t t N.'.'.O.t t t t >./ ",
"-.;.t t t t t t ,.'.'.b.t t t t t t t t t t !.'.'.'.'.'.'.'.'.'.t t {.'.'.'.'.'.'.'.'.'.].t ].'.'.P.t t t t Q.R.'.'.S.t t t >./ ",
"-.;.t t t t t t t t t t t t t t t t t t t t t t t t t t t t t t t t t t t t t t t t t t t t t t t t t t t t t t t t t t t t >./ ",
"-.;.t t t t t t t t t t t t t t t t t t t t t t t t t t t t t t t t t t t t t t t t t t t t t t t t t t t t t t t t t t t t >./ ",
"-.;.t t t t t t t t t t t t t t t t t t t t t t t t t t t t t t t t t t t t t t t t t t t t t t t t t t t t t t t t t t t t >./ ",
"-.;.t t t t t t t t t t t t t t t t t t t t t t t t t t t t t t t t t t t t t t t t t t t t t t t t t t t t t t t t t t t t >./ ",
"-.;.t t t t t t t t t t t t t t t t t t t t t t t t t t t t t t t t t t t t t t t t t t t t t t t t t t t t t t t t t t t t >./ ",
"-.;.t t t t t t t t t t t t t t t t t t t t t t t t t t t t t t t t t t t t t t t t t t t t t t t t t t t t t t t t t t t t >./ ",
"-.;.t t t t t t t t t t t t t t t t t t t t t t t t t t t t t t t t t t t t t t t t t t t t t t t t t t t t t t t t t t t t >./ ",
"T.U.t t t t t t t t t t t t t t t t t t t t t t t t t t t t t t t t t t t t t t t t t t t t t t t t t t t t t t t t t t t t V./ ",
"W.X.Y.V.V.V.V.V.V.V.V.V.V.V.V.V.V.V.V.V.V.V.V.V.V.V.V.V.V.V.V.V.V.V.V.V.V.V.V.V.V.V.V.V.V.V.V.V.V.V.V.V.V.V.V.V.V.V.V.V.V.Z.`.W.",
"  %./ / / / / / / / / / / / / / / / / / / / / / / / / / / / / / / / / / / / / / / / / / / / / / / / / / / / / / / / / / / /  +  "};
