/* XPM */
static char *flexdisk_xpm[] = {
/* width height num_colors chars_per_pixel */
"    32    32       10            1",
/* colors */
". c #000000",
"# c #bf0000",
"a c #bfbf00",
"b c #00bfbf",
"c c #c0c0c0",
"d c #808080",
"e c #ff0000",
"f c #00ff00",
"g c #00ffff",
"h c #ffffff",
/* pixels */
"hhhhdddddddddhhhhhhhhhhhhhhhhhhh",
"hhhdfffffffffdhhhhhhhhhhhhhhhhhh",
"hhdffcfcfcfcfcdhhhhhhhhhhhhhhhhh",
"hdffcfcfcfcfcfcdhhhhhhhhhhhhhhhh",
"dcccccccccccccccddddddddddddddhh",
"dfffffffffffffffffffffffffffff.h",
"dffcfcfcfcfcfcfcfcfcfcfcfcfcfca.",
"dfcfcfcfcdddd.aacfcfcfcfcfcfcfa.",
"dffcfcfddggggg..dcfcfcfcfcfcfca.",
"dfcfcfdhhggggggb.dcfcfcfcfcfcfa.",
"dffcfdhhhhghggggb.acfcfcfcfcfca.",
"dfcfcdhhhhhgggggg.accfcfcfcfcfa.",
"dffcdgghhhgggggggb.dfcfcfcfcfca.",
"dfcfdghhbhgggggggb.acfcfcfcfcfa.",
"dffcdgghhggggggggb.dfcfcfcfcfca.",
"dfcfdghhhggggggggb.acfcfcfcfcfa.",
"dffcdgghgggggggggb.dfcfcfcfcfca.",
"dfcfcdgghgggggggb.dccfcfcfcfcfa.",
"dffcfdbggggggggbb.acfcfcfcfcfca.",
"dfcfcfdbggggggbb.d.acfcfcfcfcfa.",
"dffcfcf..bbbbb..cdd.acfcfcfcfca.",
"dfcfcfcfdd....dchcd#.acfcfcfcfa.",
"dffcfcfcfcfcfcfdche##.acfcfcfca.",
"dfcfcfcfcfcfcfcfd#ee##.acfcfcfa.",
"dffcfcfcfcfcfcfcf##ee##.acfcfca.",
"d#aaaaaaaaaaaaaaaa##ee##.aaaaaa.",
"d..................##ee##......h",
"hhhhhhhhhhhhhhhhhhhh##ee##.hhhhh",
"hhhhhhhhhhhhhhhhhhhhh##ee##.hhhh",
"hhhhhhhhhhhhhhhhhhhhhh##ee#.hhhh",
"hhhhhhhhhhhhhhhhhhhhhhh##e#.hhhh",
"bhhhhhhhhhhhhhhhhhhhhhhh...hhhhh"
};
