/* XPM */
static char *floppy2[] = {
/* width height ncolors chars_per_pixel */
"16 16 5 1",
/* colors */
"  c #000000",
". c #FF0000",
"X c #808080",
"o c #FFFFFF",
"O c None",
/* pixels */
"                ",
" . XXXXXXXXX oo ",
" . XXXXXXXXX oo ",
" . XXXXXXXXX .. ",
" . XXXXXXXXX .. ",
" . XXXXXXXXX .. ",
" . XXXXXXXXX .. ",
" .           .. ",
" .............. ",
" ..          .. ",
" ..       XX .. ",
" ..       XX .. ",
" ..       XX .. ",
" ..       XX .. ",
" ..       XX .. ",
"o               "
};
