/* XPM */
static char *floppy0[] = {
/* width height ncolors chars_per_pixel */
"16 16 3 1",
/* colors */
"  c #000000",
"X c #FFFFFF",
". c None",
/* pixels */
"                ",
" .............. ",
" .............. ",
" .............. ",
" .............. ",
" .............. ",
" .............. ",
" .............. ",
" .............. ",
" .............. ",
" .............. ",
" .............. ",
" .............. ",
" .............. ",
" .............. ",
"                "
};
