/* XPM */
static char *irq4[] = {
/* width height ncolors chars_per_pixel */
"16 16 4 1",
/* colors */
"  c #00FFFF",
". c #008080",
"X c #FFFFFF",
"o c None",
/* pixels */
"oooooooXXXoooooo",
"ooooooX  .oooooo",
"oooooX  .ooooooo",
"ooooX  .oooooooo",
"oooX  .ooooooooo",
"ooX  .oooooooooo",
"oX  .XXXXXXXXXXX",
"X              .",
"............  .o",
"ooooooooooX  .oo",
"oooooXX.oX  .ooo",
"oooooX .X  .oooo",
"oooooX X  .ooooo",
"oooooX   .oooooo",
"oooooX     .oooo",
"oooooX......oooo"
};
